<svg xmlns="http://www.w3.org/2000/svg" width="134" height="139" viewBox="0 0 134 139" fill="none">
  <g filter="url(#filter0_f_56782_19022)">
    <path d="M56.1427 91.2627C42.0385 89.5864 37.1891 75.3427 45.3133 59.4516C53.4398 43.5581 71.4594 32.0333 85.5661 33.7119C99.6703 35.3882 104.52 49.6319 96.3955 65.523C88.269 81.4165 70.2494 92.9413 56.1427 91.2627Z" fill="url(#paint0_linear_56782_19022)"/>
    <path d="M69.3339 47.6413C82.3198 48.5172 88.299 62.1582 82.6884 78.1138C77.0753 94.0672 61.999 106.292 49.0109 105.419C36.025 104.543 30.0459 90.9018 35.6565 74.9462C41.2695 58.9928 56.3458 46.7678 69.3339 47.6413Z" fill="url(#paint1_linear_56782_19022)"/>
    <path d="M62.2002 90.9432C50.316 90.7901 43.3786 77.7915 46.7033 61.9144C50.0278 46.0326 62.3575 33.2858 74.2417 33.4389C86.126 33.5921 93.0633 46.5907 89.7386 62.4678C86.4117 78.3473 74.0845 91.0964 62.2025 90.9407L62.2002 90.9432Z" fill="url(#paint2_linear_56782_19022)"/>
    <path d="M63.8782 48.2835C74.6799 47.7935 82.418 60.1048 81.1578 75.7884C79.8998 91.4694 70.1236 104.581 59.3243 105.073C48.5226 105.563 40.7845 93.2515 42.0448 77.568C43.3028 61.887 53.0789 48.7756 63.8782 48.2835Z" fill="url(#paint3_linear_56782_19022)"/>
    <path d="M67.0799 90.0194C57.3325 91.0827 48.9451 79.4804 48.3477 64.1015C47.7528 48.7249 55.1726 35.3964 64.92 34.3331C74.6674 33.2698 83.0548 44.8721 83.6522 60.251C84.2496 75.6299 76.8298 88.9583 67.0799 90.0194Z" fill="url(#paint4_linear_56782_19022)"/>
    <path d="M59.5506 49.4479C68.279 47.8829 77.1768 58.7609 79.4211 73.7386C81.6679 88.7185 76.4107 102.133 67.6798 103.696C58.9489 105.259 50.0537 94.3829 47.8094 79.4052C45.5626 64.4254 50.8197 51.0107 59.5506 49.4479Z" fill="url(#paint5_linear_56782_19022)"/>
    <path d="M70.8578 88.6523C78.6142 86.683 81.9161 73.3262 78.2327 58.8192C74.5494 44.3122 65.2757 34.1484 57.5193 36.1178C49.7629 38.0871 46.461 51.4439 50.1444 65.9509C53.8277 80.4579 63.1015 90.6217 70.8578 88.6523Z" fill="url(#paint6_linear_56782_19022)"/>
    <path d="M74.2799 101.524C81.0679 99.094 82.5224 85.8153 77.5285 71.8653C72.5347 57.9153 62.9836 48.5764 56.1956 51.0064C49.4076 53.4364 47.9531 66.715 52.9469 80.665C57.9408 94.6151 67.4919 103.954 74.2799 101.524Z" fill="url(#paint7_linear_56782_19022)"/>
    <path d="M73.6986 86.9675C79.6169 84.287 79.5094 71.2835 73.4584 57.9233C67.4074 44.5631 57.7043 35.9055 51.786 38.586C45.8677 41.2665 45.9752 54.27 52.0262 67.6302C58.0772 80.9904 67.7803 89.648 73.6986 86.9675Z" fill="url(#paint8_linear_56782_19022)"/>
  </g>
  <path d="M72.7874 86.9403C61.1109 95.0272 48.0428 87.5688 43.6028 70.2826C39.1627 52.993 45.0279 32.4229 56.7078 24.3361C68.3843 16.2492 81.4524 23.7075 85.8924 40.9938C90.3324 58.2834 84.4673 78.8534 72.7874 86.9403Z" fill="url(#paint9_linear_56782_19022)"/>
  <path d="M53.7742 45.5267C64.0827 37.5811 77.5978 43.8395 83.9638 59.509C90.3264 75.1786 87.1299 94.3235 76.8214 102.273C66.5128 110.218 52.9977 103.96 46.6318 88.2903C40.2692 72.6207 43.4656 53.4758 53.7742 45.5267Z" fill="url(#paint10_linear_56782_19022)"/>
  <path d="M77.1093 82.6872C68.1048 90.4446 54.2973 85.3021 46.271 71.2056C38.2413 57.1057 39.0345 39.3892 48.0389 31.6317C57.0434 23.8743 70.8509 29.0168 78.8772 43.1133C86.9036 57.2132 86.1137 74.9297 77.1093 82.6838V82.6872Z" fill="url(#paint11_linear_56782_19022)"/>
  <path d="M50.1076 49.6216C57.8752 42.0994 71.8272 46.1967 81.2719 58.7807C90.7167 71.3614 92.0779 87.6594 84.3137 95.1816C76.5462 102.704 62.5942 98.6066 53.1494 86.0226C43.7047 73.4419 42.3434 57.1438 50.1076 49.6216Z" fill="url(#paint12_linear_56782_19022)"/>
  <path d="M80.1531 78.7635C73.5552 86.0168 59.5864 82.8808 48.9518 71.7555C38.3206 60.6302 35.0502 45.7304 41.6481 38.4771C48.246 31.2238 62.2148 34.3597 72.8494 45.485C83.4839 56.6103 86.7543 71.5102 80.1531 78.7635Z" fill="url(#paint13_linear_56782_19022)"/>
  <path d="M47.6391 53.3591C53.1413 46.405 67.0126 48.6603 78.6152 58.3941C90.2211 68.1279 95.1687 81.6598 89.6632 88.6139C84.1577 95.5681 70.2897 93.3128 58.6871 83.579C47.0812 73.8452 42.1336 60.3133 47.6391 53.3591Z" fill="url(#paint14_linear_56782_19022)"/>
  <path d="M82.0803 75.2376C86.5865 68.6244 80.2125 56.4311 67.8436 48.0031C55.4747 39.5751 41.7948 38.1039 37.2886 44.7171C32.7825 51.3303 39.1565 63.5236 51.5254 71.9516C63.8943 80.3796 77.5742 81.8508 82.0803 75.2376Z" fill="url(#paint15_linear_56782_19022)"/>
  <path d="M93.1678 82.6138C96.6433 76.2969 88.9371 65.3859 75.9554 58.2432C62.9737 51.1006 49.6324 50.4311 46.1569 56.7479C42.6813 63.0647 50.3875 73.9758 63.3692 81.1185C76.3509 88.2611 89.6922 88.9306 93.1678 82.6138Z" fill="url(#paint16_linear_56782_19022)"/>
  <path d="M83.0927 72.095C85.7509 66.1666 77.0567 56.4963 63.6737 50.4958C50.2908 44.4953 37.287 44.4369 34.6289 50.3653C31.9707 56.2937 40.6649 65.964 54.0479 71.9645C67.4308 77.965 80.4346 78.0234 83.0927 72.095Z" fill="url(#paint17_linear_56782_19022)"/>
  <defs>
    <filter id="filter0_f_56782_19022" x="0.249195" y="0.137501" width="133.385" height="138.625" filterUnits="userSpaceOnUse" color-interpolation-filters="sRGB">
      <feFlood flood-opacity="0" result="BackgroundImageFix"/>
      <feBlend mode="normal" in="SourceGraphic" in2="BackgroundImageFix" result="shape"/>
      <feGaussianBlur stdDeviation="16.65" result="effect1_foregroundBlur_56782_19022"/>
    </filter>
    <linearGradient id="paint0_linear_56782_19022" x1="64.3162" y1="22.3644" x2="107.263" y2="44.3165" gradientUnits="userSpaceOnUse">
      <stop stop-color="#F3B059"/>
      <stop offset="0.08" stop-color="#F2A05D" stop-opacity="0.85"/>
      <stop offset="0.22" stop-color="#F08765" stop-opacity="0.63"/>
      <stop offset="0.35" stop-color="#EF736B" stop-opacity="0.44"/>
      <stop offset="0.49" stop-color="#EE6270" stop-opacity="0.28"/>
      <stop offset="0.62" stop-color="#ED5474" stop-opacity="0.16"/>
      <stop offset="0.75" stop-color="#ED4B77" stop-opacity="0.07"/>
      <stop offset="0.88" stop-color="#ED4579" stop-opacity="0.02"/>
      <stop offset="1" stop-color="#ED447A" stop-opacity="0"/>
    </linearGradient>
    <linearGradient id="paint1_linear_56782_19022" x1="72.9324" y1="105.777" x2="30.0975" y2="90.7058" gradientUnits="userSpaceOnUse">
      <stop stop-color="#F3B059" stop-opacity="0.4"/>
      <stop offset="0.07" stop-color="#F4B96D" stop-opacity="0.38"/>
      <stop offset="0.4" stop-color="#FADFBD" stop-opacity="0.28"/>
      <stop offset="0.72" stop-color="#FDF7EE" stop-opacity="0.22"/>
      <stop offset="1" stop-color="white" stop-opacity="0.2"/>
    </linearGradient>
    <linearGradient id="paint2_linear_56782_19022" x1="50.3727" y1="43.0935" x2="91.8242" y2="51.7711" gradientUnits="userSpaceOnUse">
      <stop stop-color="#F3B059" stop-opacity="0"/>
      <stop offset="0.06" stop-color="#F2A45C" stop-opacity="0.06"/>
      <stop offset="0.25" stop-color="#F08167" stop-opacity="0.21"/>
      <stop offset="0.45" stop-color="#EE666F" stop-opacity="0.34"/>
      <stop offset="0.64" stop-color="#ED5375" stop-opacity="0.43"/>
      <stop offset="0.82" stop-color="#ED4778" stop-opacity="0.48"/>
      <stop offset="1" stop-color="#ED447A" stop-opacity="0.5"/>
    </linearGradient>
    <linearGradient id="paint3_linear_56782_19022" x1="80.1867" y1="87.0776" x2="41.4899" y2="83.9753" gradientUnits="userSpaceOnUse">
      <stop stop-color="#8FC5F9"/>
      <stop offset="1" stop-color="#2E5293" stop-opacity="0"/>
    </linearGradient>
    <linearGradient id="paint4_linear_56782_19022" x1="47.8882" y1="58.4352" x2="83.3887" y2="57.0612" gradientUnits="userSpaceOnUse">
      <stop stop-color="#2E5293" stop-opacity="0"/>
      <stop offset="0.19" stop-color="#3E65A3" stop-opacity="0.17"/>
      <stop offset="0.6" stop-color="#6694CE" stop-opacity="0.58"/>
      <stop offset="1" stop-color="#8FC5F9"/>
    </linearGradient>
    <linearGradient id="paint5_linear_56782_19022" x1="79.5024" y1="75.9425" x2="47.8582" y2="80.6866" gradientUnits="userSpaceOnUse">
      <stop stop-color="#76E0C6" stop-opacity="0.96"/>
      <stop offset="1" stop-color="#27613E" stop-opacity="0"/>
    </linearGradient>
    <linearGradient id="paint6_linear_56782_19022" x1="50.1925" y1="65.7626" x2="78.2342" y2="58.6115" gradientUnits="userSpaceOnUse">
      <stop stop-color="#27613E" stop-opacity="0"/>
      <stop offset="0.2" stop-color="#357857" stop-opacity="0.18"/>
      <stop offset="0.65" stop-color="#5AB496" stop-opacity="0.63"/>
      <stop offset="1" stop-color="#79E5CB"/>
    </linearGradient>
    <linearGradient id="paint7_linear_56782_19022" x1="77.4582" y1="71.6431" x2="52.8519" y2="80.3936" gradientUnits="userSpaceOnUse">
      <stop stop-color="#891ED7" stop-opacity="0"/>
      <stop offset="0.19" stop-color="#962EDC" stop-opacity="0.17"/>
      <stop offset="0.61" stop-color="#B959E8" stop-opacity="0.59"/>
      <stop offset="1" stop-color="#DB83F5"/>
    </linearGradient>
    <linearGradient id="paint8_linear_56782_19022" x1="51.9855" y1="67.532" x2="73.4176" y2="57.8252" gradientUnits="userSpaceOnUse">
      <stop stop-color="#891ED7"/>
      <stop offset="0.39" stop-color="#B36FE5" stop-opacity="0.78"/>
      <stop offset="1" stop-color="white" stop-opacity="0.4"/>
    </linearGradient>
    <linearGradient id="paint9_linear_56782_19022" x1="33.2719" y1="29.9113" x2="79.9866" y2="17.9083" gradientUnits="userSpaceOnUse">
      <stop stop-color="#F3B059"/>
      <stop offset="0.08" stop-color="#F2A05D" stop-opacity="0.85"/>
      <stop offset="0.22" stop-color="#F08765" stop-opacity="0.63"/>
      <stop offset="0.35" stop-color="#EF736B" stop-opacity="0.44"/>
      <stop offset="0.49" stop-color="#EE6270" stop-opacity="0.28"/>
      <stop offset="0.62" stop-color="#ED5474" stop-opacity="0.16"/>
      <stop offset="0.75" stop-color="#ED4B77" stop-opacity="0.07"/>
      <stop offset="0.88" stop-color="#ED4579" stop-opacity="0.02"/>
      <stop offset="1" stop-color="#ED447A" stop-opacity="0"/>
    </linearGradient>
    <linearGradient id="paint10_linear_56782_19022" x1="94.9791" y1="86.6949" x2="52.9066" y2="103.779" gradientUnits="userSpaceOnUse">
      <stop stop-color="#F3B059" stop-opacity="0.4"/>
      <stop offset="0.07" stop-color="#F4B96D" stop-opacity="0.38"/>
      <stop offset="0.4" stop-color="#FADFBD" stop-opacity="0.28"/>
      <stop offset="0.72" stop-color="#FDF7EE" stop-opacity="0.22"/>
      <stop offset="1" stop-color="white" stop-opacity="0.2"/>
    </linearGradient>
    <linearGradient id="paint11_linear_56782_19022" x1="36.5528" y1="54.6755" x2="73.3541" y2="33.7184" gradientUnits="userSpaceOnUse">
      <stop stop-color="#F3B059" stop-opacity="0"/>
      <stop offset="0.06" stop-color="#F2A45C" stop-opacity="0.06"/>
      <stop offset="0.25" stop-color="#F08167" stop-opacity="0.21"/>
      <stop offset="0.45" stop-color="#EE666F" stop-opacity="0.34"/>
      <stop offset="0.64" stop-color="#ED5375" stop-opacity="0.43"/>
      <stop offset="0.82" stop-color="#ED4778" stop-opacity="0.48"/>
      <stop offset="1" stop-color="#ED447A" stop-opacity="0.5"/>
    </linearGradient>
    <linearGradient id="paint12_linear_56782_19022" x1="88.0225" y1="67.8812" x2="56.978" y2="91.1901" gradientUnits="userSpaceOnUse">
      <stop stop-color="#8FC5F9"/>
      <stop offset="1" stop-color="#2E5293" stop-opacity="0"/>
    </linearGradient>
    <linearGradient id="paint13_linear_56782_19022" x1="44.8541" y1="67.815" x2="70.539" y2="43.27" gradientUnits="userSpaceOnUse">
      <stop stop-color="#2E5293" stop-opacity="0"/>
      <stop offset="0.19" stop-color="#3E65A3" stop-opacity="0.17"/>
      <stop offset="0.6" stop-color="#6694CE" stop-opacity="0.58"/>
      <stop offset="1" stop-color="#8FC5F9"/>
    </linearGradient>
    <linearGradient id="paint14_linear_56782_19022" x1="80.136" y1="59.9912" x2="59.5725" y2="84.5066" gradientUnits="userSpaceOnUse">
      <stop stop-color="#76E0C6" stop-opacity="0.96"/>
      <stop offset="1" stop-color="#27613E" stop-opacity="0"/>
    </linearGradient>
    <linearGradient id="paint15_linear_56782_19022" x1="51.4367" y1="71.7788" x2="67.7071" y2="47.8465" gradientUnits="userSpaceOnUse">
      <stop stop-color="#27613E" stop-opacity="0"/>
      <stop offset="0.2" stop-color="#357857" stop-opacity="0.18"/>
      <stop offset="0.65" stop-color="#5AB496" stop-opacity="0.63"/>
      <stop offset="1" stop-color="#79E5CB"/>
    </linearGradient>
    <linearGradient id="paint16_linear_56782_19022" x1="75.7555" y1="58.1233" x2="63.1182" y2="80.9781" gradientUnits="userSpaceOnUse">
      <stop stop-color="#891ED7" stop-opacity="0"/>
      <stop offset="0.19" stop-color="#962EDC" stop-opacity="0.17"/>
      <stop offset="0.61" stop-color="#B959E8" stop-opacity="0.59"/>
      <stop offset="1" stop-color="#DB83F5"/>
    </linearGradient>
    <linearGradient id="paint17_linear_56782_19022" x1="53.9523" y1="71.9179" x2="63.5782" y2="50.4493" gradientUnits="userSpaceOnUse">
      <stop stop-color="#891ED7"/>
      <stop offset="0.39" stop-color="#B36FE5" stop-opacity="0.78"/>
      <stop offset="1" stop-color="white" stop-opacity="0.4"/>
    </linearGradient>
  </defs>
</svg>